<svg version="1.2" xmlns="http://www.w3.org/2000/svg" viewBox="0 0 5535 1131" width="5535" height="1131">
	<title>logo</title>
	<style>
		.s0 { fill: #232323 } 
	</style>
	<path class="s0" d="m3942.3 134.6c9.5-0.4 19 0.1 28.4 1.6 16.6 2.6 40.2 7.7 50.1 22.6 6.3 9.5 6 21.2 3.4 31.8-3.4 14.2-11.9 27-20.6 38.5-29.1 38.8-69.2 69.7-96.8 109.3-17.3 24.9-34.7 68.9-60.9 83.8 52.2-6.9 97.3-38.3 150.5-41 39.5-1.9 85.7 6.7 115.6 34.4 21.3 19.6 31.6 47.4 32.3 76 2 82.8-66.9 174.2-121.8 230.9-72 74.5-180.6 146.7-287.7 147.9-41.7 0.5-87.3-10.8-117.6-41.1-29.8-29.7-31.5-66.2-31.2-105.8-65.3 66-147.1 142.2-245.9 143.6-38 0.6-76.8-10.5-104.2-38-34.2-34.6-34-78.5-33.3-123.9-72.1 65.9-167.7 129.4-264.2 151.1-51 11.6-109.4 11.3-154.7-18-37.5-24.3-60-63.7-69.1-106.8-45.5 43.2-93 87.6-145.4 122.4-29.2 19.3-61.3 34.2-90.2 54-38.4 26.4-72.7 57-116.5 74.3-42.4 16.8-94 22-136.7 3.4-30.8-13.5-59.7-41.9-71.8-73.5-4.9-12.8-6.5-28 0-40.5 2.5-5 7-8.8 12.4-10.2 22.4-5.9 50.5 19.3 68.8 30 15.8 9.2 37.3 18.4 55.9 13.2 84.6-24 146-133.3 187.2-204.2-38.4 32.1-76.7 66-117.7 94.7-32.5 22.6-72.2 43.8-113.2 35.9-37.1-7.2-58-34.3-78-63.8-29 28.4-59.1 62-95.6 80.4-28.2 14.2-64.3 21.5-95 11.2-22.5-7.5-39.7-24.2-50.3-45.2-22-44.1-10.4-91.6 4.2-135.8-52.9 61.5-136.9 157.8-218.1 177.3-30.7 7.4-62.1 2.4-88.8-14.5-33.8-21.3-43.9-53.7-52-90.5-32.9 32.6-66.8 65.6-107 89.1-29.9 17.5-67.1 29.7-101.7 20.3-23.5-6.3-42.3-22.6-53.9-43.8-21.2-38.5-14.2-81.2-2.4-121.2-22.3 28.4-45.1 56.9-70.3 82.8-38.4 39.7-93.1 83.5-150.7 83.8-31.2 0.2-66.2-5.3-89-28.5-22.9-23.3-29.3-57.8-29.1-89.3 0.8-98.3 88.7-287.8 158.5-355.8 15.5-15 33.9-27.2 56.4-25.8 23 1.3 38.8 17.4 53 33.7 0.4 12.6 0.5 25.1-2.9 37.4-9.1 32.1-28.6 61.6-46 89.8-34 55.1-76.2 113.2-98.4 174.2-5.2 14.2-10.6 33.4-3.2 47.7 4.7 9 13.4 16.5 23.4 19 13.9 3.4 29.1-2.8 41.5-8.9 84-41.7 196.9-226.4 254.5-308.2 19.6-27.9 40.5-64.1 69.4-82.9 16.2-10.5 36.1-11.8 54.6-7.5 14.1 3.2 29.1 10.4 36.5 23.4 5.7 10.1 5.3 20.8 2.4 31.6-8.5 32.6-28.5 64.5-45.5 93.4-38.4 65.1-115.7 177.2-131.7 247.6-2.4 10.5-3.8 19.4 2.4 28.9 6.7 4 9.9 5.7 18.1 4.7 46.8-6.1 147.6-107.5 172.7-144.6 31.4-46.4 39-82.8 79.4-131q5.1-6.4 10.5-12.5c60.8-67.3 149.1-124.2 241.7-128.9 54.8-2.8 92.3 17.2 132 52.6 49.7-74.2 85.2-157.4 133.7-232.7 14.8-23 31.8-45.9 60.2-51.6 19.2-3.8 44.9-0.1 60.9 11.6 10.6 7.8 16.1 19.8 13.9 33-6.8 40.3-61.2 120.3-82.2 158-30.2 54.5-222.1 401.2-214.6 440 1.1 5.8 2.7 6.1 7.4 9 4.4 0 8.7-0.4 12.9-2 40.2-14.4 103.5-74.8 123.1-111.8 15.9-30 24.1-63.8 40-94.1 49.5-94.8 153.4-171.9 254.4-202.8 56.8-17.4 126.3-25.8 180.5 3.5 27 14.7 48 39.4 56.5 69.2 6.1 21.5 7.1 52.9-4.9 72.6-3.8 6.1-9.2 11.2-16.4 12.6-30.9 5.9-61.5-52.5-84.6-69-14.5-10.4-31.4-11.1-48.4-7.9-91.5 17.3-201.4 118.3-251.7 193.5-14.2 21.1-37.3 56.2-30.8 82.8 1.7 7.1 5.8 12.8 12.4 16.2 11.2 5.9 25.6 3.8 37.3 0.2 65.8-20.4 172.8-125.6 212.6-180.8 11.3-15.7 17.7-33.6 26.7-50.5 5.6-10.4 12.7-20 24.8-22.9 9.2-2.2 18.1 1 26 5.6 19.4 11.5 35.9 35.5 41.1 57.3 15.8 65.9-71.2 187.1-105.4 243.4 95.4-61.9 171.5-147.3 240.1-236.8 68.2-89 193.7-188.8 308.1-203.2 29.4-3.7 65.7-2.2 90.1 17 12.7 10 20.2 24.3 21.7 40.4 8.9 96.1-172.6 218.5-251.1 251.1-18.2 7.6-104.9 27.5-109.8 34.2-6.3 8.5-5.7 28.8-3.8 39.1 2.7 14.3 10.4 25.6 22.9 33.4 25.8 16.2 55.9 11.9 83.9 5.2 97.4-23.2 246.2-106.5 299.6-193.2 14.8-23.9 20.9-54.8 32.7-80.5 19.1-41.5 44.6-80.3 68.5-119.1-31.9-2.1-71.8-0.4-99.3-18.5-8.6-5.6-18.1-14.7-19.5-25.4-0.8-6.5 1.4-12.2 5.9-17 22.2-23.8 135.3-16.1 168.6-15.6q11.3-17.2 23-34.1c27.4-38.7 78.1-108.5 127.5-116.1 15.3-2.2 30.8 2 42.9 11.5 8.1 6.3 14.4 14.4 15.2 25 2.7 35.8-59.1 92-82.8 118 31.4-1.4 105.9-9.9 131.4 4.7 6.8 3.9 7.7 6.6 9.5 13.6-2.8 11-9.6 19.9-18.1 27.2-42.5 36.4-119.4 31.9-172 28.1-16 21.8-30.5 45.3-44.3 68.6-35 59-123.7 211.6-104.4 282.1 3.7 13.4 11 22.7 23.1 29.3 20.9 11.3 38.9 13.2 61.5 6.3 67.2-20.3 176-119.8 210.9-180.4 21.5-37.1 35.7-87.4 58.2-129 47.2-87.2 179.2-308.5 267.7-334.9zm-188.2 634.3c86.4-21.4 177.3-111 222.2-185.1 15.5-25.5 36.6-68.7 29.4-99.6-2.1-8.4-7.2-15.2-14.7-19.6-15.2-9-32.8-10.6-50-8.4-71.5 22.5-137.9 51-174.5 121.4-16 30.8-72.7 156.3-59.4 188.1 1.9 4.7 4.9 8.4 9.8 10.1 8.9 3.1 25.3-0.3 33.8-4.7 1.2-0.6 2.2-1.4 3.4-2.2zm-2038.6 6.9c90.5-35.4 237.5-183 275.3-270.7 4.2-9.7 7.9-21.7 3.8-32-2.8-7.4-8.7-11.2-15.8-14-8.5-3.2-16.7-3.8-25.7-3.9-98.7 22.7-189.8 109.6-242.1 193.5-16.3 26.3-46 76.2-39.3 107.1 1.5 7.4 5.4 12.6 12 16.3 10.3 5.7 20.6 5 31.8 3.7zm1184.8-171c65.6-23.8 199.7-94.3 228.6-160.7 1.6-3.8 2-7.1 2.2-11.1-3.6-6.2-5.3-8.2-12.5-10-2.5-0.6-5.4-0.4-8-0.4-74.8 22.8-127.7 70.2-181.2 125.1-14 14.4-33.4 31.9-42.5 50.1-1.3 2.7-1.6 5.1-1.5 8.1 6.1 2.6 8.6 0.7 14.9-1.1z"/>
	<path class="s0" d="m855.4 96.6c24.8-1.6 51.3-0.9 75.8 3.6 37.7 6.9 72.4 23.4 94.4 55.8 23 33.8 26.9 76.2 19.4 115.6-19.7 104.1-104.9 173-187.4 229.4 21.5 18.3 40.8 39.7 53.5 65.1 22.5 44.9 21.5 94 5.8 141-31.9 95.6-115 179.9-204 224.4-105.2 52.6-275.5 77-388.3 38.8-33.7-11.4-65.2-27.9-80.9-61.2-4.9-10.4-8.2-21-4.2-32.3 24.5-23.7 78.5 21.6 111.2 30 30 7.8 60.7 8.2 91.5 5.4 133.1-12.2 252.1-79.4 336.8-181.7 12.7-17.7 24.4-35.6 33.1-55.7 10.8-24.8 18-54.8 7.2-80.9-10.1-24.5-33.4-40.9-57.3-50.4-71.8-28.4-155.5-6.3-223.5 22.5-25.1 50.9-48 102.9-68.7 155.7-15.4 39.2-29 80.1-46.5 118.2-6.5 14.2-14.7 33.1-30.8 38.3-11.4 3.6-23.5-0.3-33.6-5.9-18.4-10.1-37-30.3-42.4-51-24.7-93.2 213.5-501.9 270.1-598.3-41.7 16-81.7 44.6-125.3 53.9-16.9 3.6-39.5 4.3-54.3-6-10.2-7-15.9-18.7-17.6-30.7-1.5-10.3 1.2-20 7.9-28 18.8-22.5 60.1-34.2 87.2-43.3 119.6-41.5 244.5-65.8 370.9-72.3zm-123.2 90.2c-1.5 16.2-5 29.6-11.1 44.7-19.1 47-47.9 91.2-73.2 135.1-26.6 46.2-52.1 93.4-79.5 139.1 30.9-11.2 62-21.8 92.3-34.5 89.6-37.1 246.6-109.2 285.7-205.6 8.2-20.1 9.8-41.3 0.8-61.4-6.7-14.9-18.8-21.9-33.5-27.1-20.7-7.3-49.9-12.1-71.7-7.5-37 3-73.7 8.8-109.8 17.2z"/>
	<path class="s0" d="m5235.5 334.6c8.7-0.9 18.1-1.5 26.8-0.1 10.1 1.6 23.9 5.3 29.5 14.5 3.6 5.7 3.6 12.9 1.6 19.2-10.4 32.1-63.1 63.6-90 82.7-49.4 35.3-100.3 68-146.8 107.3-35.8 30.3-112.5 113.7-145 131.1 21.1 26.2 20.9 72.4 56.1 88.1 16.7 7.5 37 2.6 53.6-2.8 40.9-13.4 74.2-37.3 106.8-64.7 18.6-15.6 96.6-100.3 109.3-103.2 5.1-1.1 11.5-0.2 15.5 3 5.9 4.5 7.6 12.1 8.1 19.1 2 30.5-24.8 62.3-43.4 84.2-57.4 67.4-145.3 148.9-238.4 155.4-65.5 4.6-107.2-26.9-138.1-81.6-6.6-11.9-13.1-27.9-23.6-36.5q-0.6-0.5-1.3-1c-1.3 20.5-108 127.7-127.7 146.1-15 14-32.8 28.4-54.6 26.9-15.1-1-30.5-10.3-39.6-22.3-56.8-75 206.6-209.8 214.5-266.8 2.3-16.4 2.5-40.8-7.8-54.6-0.3 2.7-0.6 5-1.6 7.5-14.6 35.1-75.1 93.6-110.2 108-1.4 1.9-2.5 3.4-4.4 4.9-40.3 33.4-101.4 35.4-151.1 32.9-32.8 51.7-104.3 101.2-161.2 121.1-46.5 16.3-98.3 19.5-143.4-2.7-34.4-16.9-60.5-47.1-72.3-83.6-22.8-68.8-1.6-145.1 30.4-207.4 42.8-83.5 118.3-167.5 210.1-196.3 35.2-11 68.6-11.8 101.4 6.1 14 7.6 31.5 22 36.1 37.7 24.9 5 44.7 12 61 32.6 21.4 27.2 23.2 61.9 19.6 95-3.7 34.4-15.6 103.7-42.6 125.5 16.4-1.8 32.1-5.1 47.6-11 56.5-21.6 164.9-108 173.8-171.6 4.2-29.8-24.4-67.7-10.4-94.8 3.2-6.2 8.9-10.5 15.7-11.9 14.7-3.1 32.2 3.9 44.4 11.9 33.8 22.1 53.3 78.2 61.2 115.7 3.6 17.2 8.1 42.1-2.2 57.7 32.1-15.8 57.9-46.6 84.4-70.2 72.7-64.7 154.7-121.7 248.2-151.1zm-908.1 429.8c35.9-4.4 81.5-20.8 104.9-49.9 2.8-3.5 4.3-6 4.8-10.5-7.6-33.4-83.8-58.3-77.5-153 0.9-13.6 2.7-30.7 7.4-43.7 5.7-15.6 18-31.2 19.9-47.7-3.8-1.2-6-1.3-10-0.7-0.3 0.4-0.6 0.8-1 1.1-15.6 16.5-34.4 30.4-50.5 46.6-44.6 45-84.4 111.4-82.6 176.5 0.6 23.6 8.2 53.2 26.3 69.7 12.6 11.5 33.6 14.3 50.2 12.8 2.7-0.2 5.5-0.4 8.1-1.2zm135.7-207.3c11.2 15.4 28.2 50 29.5 68.8 2.7 0 7 0.9 8.9-1 19.8-20.2 31.8-75.5 31.1-103.2-0.2-7.8-1.9-13.9-5.5-20.9-5.7-4.5-8.1-5.6-15.7-4.7-1.5 0.1-3.1 0.4-4.7 0.7-17.4 17.9-33.2 50.8-43.6 60.3z"/>
</svg>